<svg width="403" height="410" viewBox="0 0 403 410" fill="none" xmlns="http://www.w3.org/2000/svg">
<path d="M383.13 238.328C383.13 238.328 382.593 238.4 382.383 237.473C379.156 231.784 376.617 226.427 369.701 226.505C369.701 226.505 369.877 226.357 369.774 225.89C369.005 225.086 368.338 224.749 367.671 224.411C367.671 224.411 367.931 224.331 367.796 223.881C366.996 223.094 366.33 222.757 365.664 222.421C365.664 222.421 365.922 222.338 365.79 221.887C364.992 221.099 364.326 220.762 363.66 220.426C363.66 220.426 363.916 220.341 363.788 219.889C362.996 219.092 362.334 218.748 361.672 218.403C361.672 218.403 361.935 218.323 361.799 217.876C360.999 217.088 360.334 216.747 359.67 216.406C359.67 216.406 359.934 216.327 359.797 215.879C358.993 215.093 358.325 214.756 357.658 214.419C357.658 214.419 357.924 214.337 357.79 213.888C356.987 213.102 356.317 212.766 355.648 212.431C355.648 212.431 355.914 212.347 355.783 211.895C354.983 211.108 354.313 210.772 353.643 210.437C353.643 210.437 353.909 210.351 353.78 209.899C352.979 209.113 352.308 208.779 351.637 208.444C351.637 208.444 351.911 208.363 351.77 207.909C350.932 207.18 350.236 206.905 349.54 206.629C349.54 206.629 349.823 206.549 349.706 206.04C348.504 204.999 347.419 204.469 346.334 203.939C345.766 203.612 345.197 203.285 344.397 201.778C342.758 196.69 340.483 193.936 335.838 194.331C335.838 194.331 336.034 194.234 335.868 193.785C335.032 193.024 334.36 192.711 333.689 192.398C333.689 192.398 333.958 192.325 333.804 191.877C332.962 191.131 332.275 190.833 331.588 190.535C331.588 190.535 331.891 190.451 331.74 189.96C330.47 188.98 329.352 188.491 328.233 188.002C328.233 188.002 328.297 187.959 328.22 187.272C327.224 183.196 325.144 181.727 321.622 182.646C321.622 182.646 321.823 182.482 321.713 181.976C320.499 180.971 319.396 180.473 318.293 179.975C318.293 179.975 318.298 179.962 318.2 179.291C316.675 177.87 315.247 177.12 313.819 176.369C313.819 176.369 314.019 176.23 313.773 175.741C312.728 174.929 311.928 174.606 311.129 174.282C311.129 174.282 310.578 174.311 310.339 173.407C308.677 171.786 307.255 171.069 305.832 170.352C305.832 170.352 306.023 170.244 305.852 169.796C304.997 169.063 304.312 168.778 303.627 168.492C303.627 168.492 303.906 168.429 303.786 167.848C295.806 157.763 285.003 152.354 274.563 146.463C273.854 146.063 272.658 146.525 271.688 146.586C271.688 146.586 271.93 146.405 271.788 145.821C269.261 141.705 266.013 140.01 261.706 140.569C261.706 140.569 261.942 140.411 261.803 139.831C254.674 132.72 246.939 127.601 237.179 126.315C237.179 126.315 236.623 126.391 236.358 125.468C235.77 123.976 235.592 123.14 235.105 122.876C223.725 116.728 212.371 110.525 200.845 104.663C198.971 103.71 196.304 104.316 194.004 104.202C194.004 104.202 194.167 104.122 193.931 103.535C189.842 100.612 186.122 98.0109 182.107 95.9977C175.032 92.4501 167.694 89.424 160.668 85.7889C159.22 85.0401 158.654 82.5829 157.689 80.9091C152.907 72.6171 148.147 64.3125 143.342 56.0341C138.851 48.2963 134.186 40.6561 129.848 32.8337C127.67 28.9055 127.384 24.6988 130.311 19.729C134.077 20.7143 137.824 21.7026 141.575 22.6747C147.942 24.3246 154.312 25.9644 160.68 27.6085C160.68 27.6085 160.477 27.6964 160.777 28.237C171.282 33.2038 181.416 37.8036 191.726 41.971C195.868 43.6453 200.394 44.3702 204.746 45.5272C204.746 45.5272 204.541 45.6089 204.74 46.2105C205.588 47.5549 206.091 48.5821 206.905 48.9974C216.346 53.8093 225.609 59.0846 235.397 63.0594C241.065 65.3615 245.504 71.1955 252.628 69.6786C252.628 69.6786 252.457 69.7541 252.674 70.3305C259.934 76.8835 267.305 82.2352 276.836 83.4706C276.836 83.4706 276.615 83.5793 276.776 84.1854C279.142 88.7033 282.215 90.7502 286.863 89.4171C286.863 89.4171 286.649 89.538 286.787 90.1269C291.757 94.8215 296.159 99.715 303.273 99.6426C303.273 99.6426 303.9 99.6174 304.209 100.542C305.997 102.075 307.476 102.682 308.956 103.289C308.956 103.289 308.732 103.456 308.845 104.05C310.948 105.54 312.938 106.435 314.928 107.33C314.928 107.33 314.268 107.528 314.462 108.165C316.36 115.408 321.991 114.723 326.893 115.391C326.893 115.391 326.687 115.512 326.81 116.117C328.759 119.773 330.794 122.447 335.005 121.203C335.005 121.203 334.682 121.647 334.814 122.115C341.027 129.142 346.704 136.259 356.277 137.977C356.277 137.977 356.298 137.962 356.358 138.665C359.408 144.156 361.997 149.437 368.851 149.467C368.851 149.467 368.666 149.598 368.797 150.059C369.603 150.836 370.278 151.151 370.953 151.467C370.953 151.467 370.697 151.552 370.827 152.01C371.63 152.79 372.304 153.113 372.978 153.436C372.978 153.436 372.728 153.53 372.847 153.992C373.637 154.78 374.309 155.107 374.981 155.433C374.981 155.433 374.738 155.533 374.846 155.993C375.61 156.808 376.266 157.162 376.922 157.517C376.922 157.517 376.668 157.599 376.802 158.047C377.593 158.841 378.25 159.187 378.907 159.534C378.907 159.534 378.655 159.612 378.787 160.058C379.564 160.871 380.209 161.238 380.855 161.605C380.855 161.605 380.6 161.671 380.738 162.105C381.495 162.932 382.115 163.326 382.735 163.72C382.735 163.72 382.537 163.727 382.531 164.333C384.356 166.623 386.186 168.308 388.017 169.993C388.017 169.993 388.571 170.314 388.552 171.35C389.711 173.593 390.89 174.799 392.069 176.005C392.069 176.005 392.596 176.367 392.56 177.507C396.968 188.826 399.699 199.363 398.265 210.547C397.176 219.045 395.636 227.486 394.297 235.953C394.297 235.953 394.298 235.962 393.493 236.052C389.503 236.87 386.316 237.599 383.13 238.328Z" fill="#54A5D7"/>
<path d="M98.3339 305.733C90.011 302.454 81.7337 299.052 73.3536 295.927C63.0277 292.076 52.4585 289.548 41.2921 289.422C26.0104 289.249 15.2604 295.975 8.48067 309.457C7.45745 311.492 6.47903 313.549 4.39995 317.809C3.19555 306.909 1.93026 298.226 1.33364 289.497C-0.00318205 269.936 -1.14771 250.351 2.13766 230.842C2.1928 230.515 2.20614 230.18 2.26198 229.853C4.9006 214.395 12.5922 202.718 33.0975 213.524C43.6721 219.097 54.5331 224.127 65.8129 230.605C69.0556 239.936 70.9583 248.444 74.6379 256.099C79.6424 266.509 86.1233 276.2 91.7396 286.328C95.0843 292.36 98.6162 298.425 98.3339 305.733Z" fill="#8E5AAB"/>
<path d="M60.2205 81.9091C57.3758 89.1849 59.5295 95.7862 63.698 101.63C69.0841 109.182 74.4744 116.89 80.9252 123.492C98.0913 141.062 115.925 157.978 133.306 175.341C147.635 189.655 161.697 204.237 176.096 219.318C176.315 219.935 176.385 219.861 176.385 219.861C173.649 218.977 170.742 218.434 168.203 217.157C139.19 202.559 110.233 187.849 80.6752 171.967C77.8577 168.994 75.6252 167.223 72.8704 165.037C74.9153 156.204 70.7969 149.046 65.4439 141.964C58.0564 132.191 50.7931 122.25 44.4125 111.809C36.6544 99.1132 30.311 85.55 22.4874 72.8991C18.2489 66.0455 13.5873 58.8726 5.16772 55.9454C6.85504 41.0988 10.6909 26.9635 19.591 14.7664C20.0217 16.5468 20.0767 17.9671 19.5686 19.1445C16.717 25.7523 19.02 30.5117 24.253 34.8683C26.942 37.107 29.101 40.2138 30.8528 43.2958C33.9769 48.7922 36.2863 54.761 39.5231 60.182C44.75 68.9361 49.5864 78.2358 60.2205 81.9091Z" fill="#787ABD"/>
<path d="M98.8939 306.139C98.6162 298.425 95.0844 292.36 91.7396 286.328C86.1234 276.2 79.6424 266.509 74.638 256.099C70.9583 248.444 69.0556 239.936 66.3481 231.059C75.7052 234.927 85.1565 239.389 94.4286 244.195C115.068 254.895 135.617 265.768 155.91 277.266C152.729 278.737 151.878 280.694 153.105 283.221C154.826 286.766 156.652 290.303 158.836 293.573C167.062 305.886 175.514 318.047 183.729 330.366C185.525 333.058 187.993 336.215 187.89 339.076C187.653 345.617 190.633 350.337 194.275 355.041C184.985 355.233 176.798 351.579 168.933 347.304C161.945 343.507 155.353 338.987 148.48 334.969C132.172 325.437 115.8 316.013 98.8939 306.139Z" fill="#816BB7"/>
<path d="M43.4138 312.303C46.7808 312.14 49.3471 312.14 52.6958 312.14C45.9213 331.703 54.7833 344.684 69.3533 354.372C82.0564 362.819 95.7271 369.808 108.93 377.51C113.516 380.185 118.288 382.679 122.424 385.952C127.818 390.222 127.573 393.72 122.049 397.977C119.71 399.78 117.019 401.304 114.259 402.356C94.7125 409.806 74.6941 411.397 54.5899 405.323C28.1975 397.35 14.8598 376.01 18.7355 348.602C19.5199 343.055 21.0984 337.532 23.0136 332.253C26.4584 322.757 32.5243 315.536 43.4138 312.303Z" fill="#8E5AAB"/>
<path d="M160.232 27.0697C154.312 25.9645 147.942 24.3248 141.575 22.6748C137.824 21.7027 134.077 20.7144 130.311 19.7291C127.384 24.6989 127.67 28.9056 129.848 32.8339C134.186 40.6562 138.851 48.2964 143.342 56.0342C148.147 64.3126 152.907 72.6172 157.689 80.9092C158.654 82.583 159.22 85.0402 160.667 85.7891C167.693 89.4241 175.032 92.4503 182.107 95.9978C186.122 98.011 189.842 100.612 193.926 103.626C184.336 100.285 174.566 96.1321 164.676 92.2887C156.928 89.2778 149.031 86.6496 140.426 82.7722C136.075 79.9241 132.834 76.2683 128.334 79.6771C126.666 79.3759 124.997 79.0746 122.467 77.7388C120.568 75.9211 119.473 74.398 118.499 74.4711C110.164 75.0966 107.362 68.8762 103.943 63.2355C99.3628 55.6808 94.9439 48.0004 89.8948 40.7657C83.8621 32.1216 77.3092 23.8347 70.8282 15.5125C68.5837 12.6304 67.4107 9.95819 69.6155 6.98907C74.7923 5.99084 79.5314 5.07696 84.2705 4.16309C110.252 8.88153 135.058 17.57 160.232 27.0697Z" fill="#6196CD"/>
<path d="M189.61 169.568C189.61 169.568 189.969 169.43 190.405 170.197C197.813 175.21 204.829 179.385 211.735 183.735C214.716 185.613 217.468 187.855 220.314 190.802C219.42 202.112 223.295 210.969 228.703 219.656C236.823 232.702 249.719 242.511 254.022 258.239C255.264 262.778 259.432 266.483 262.078 270.684C263.985 273.712 265.764 276.846 267.3 280.075C271.122 288.117 274.285 296.522 278.719 304.2C280.64 307.525 285.038 309.418 288.381 312.704C288.521 313.938 288.591 314.43 288.661 314.921C286.915 316.454 285.168 317.986 282.598 319.366C281.491 319.701 281.206 320.19 280.922 320.678C280.922 320.678 280.731 320.535 280.27 320.554C279.362 321.161 278.916 321.75 278.47 322.338C278.47 322.338 278.446 322.118 278.044 322.267C277.196 322.935 276.748 323.454 276.301 323.974C276.301 323.974 276.298 323.962 275.601 323.965C273.363 325.276 271.821 326.584 270.279 327.892C270.279 327.892 269.983 328.361 268.846 328.241C260.696 328.241 256.366 324.553 252.568 318.872C246.296 309.487 245.939 297.574 238.962 288.593C238.608 288.138 238.433 287.213 238.645 286.701C242.281 277.872 238.761 269.166 238.414 260.397C238.223 255.553 236.588 252.156 232.357 249.953C232.357 249.953 231.91 249.488 232.002 248.444C231.339 246.297 230.584 245.194 229.829 244.091C222.697 233.356 215.565 222.62 208.098 210.691C207.164 209.051 206.565 208.603 205.967 208.155C205.967 208.155 206.149 208.112 205.969 207.686C205.218 206.865 204.647 206.469 204.077 206.073C203.38 205.955 202.861 205.586 202.339 203.811C199.303 199.934 196.448 197.214 193.593 194.493C193.593 194.493 193.827 194.382 193.728 193.927C192.98 193.126 192.332 192.78 191.684 192.433C191.684 192.433 191.906 192.346 191.776 191.889C190.992 191.1 190.339 190.767 189.686 190.435C189.686 190.435 189.91 190.35 189.777 189.891C188.987 189.103 188.329 188.774 187.672 188.446C187.672 188.446 187.901 188.36 187.772 187.9C186.984 187.109 186.325 186.779 185.666 186.448C185.666 186.448 185.918 186.371 185.794 185.8C181.919 181.193 178.21 177.119 174.405 173.137C171.034 169.609 167.475 166.259 164.155 162.686C161.967 160.333 162.513 158.63 165.825 158.106C166.954 158.595 168.084 159.083 170.196 160.37C174.331 162.214 177.484 163.261 180.636 164.308C180.636 164.308 181.531 164.431 182.048 165.31C183.905 166.7 185.244 167.212 186.583 167.723C186.583 167.723 186.447 167.834 186.787 168.309C187.954 169.045 188.782 169.306 189.61 169.568Z" fill="#6196CD"/>
<path d="M4.84585 56.7466C13.5874 58.8727 18.249 66.0457 22.4875 72.8992C30.3111 85.5501 36.6544 99.1133 44.4126 111.809C50.7931 122.25 58.0565 132.191 65.444 141.965C70.797 149.046 74.9154 156.204 72.8705 165.037C75.6253 167.223 77.8578 168.994 80.1894 171.471C64.8149 165.433 49.187 159.019 33.9037 151.867C10.839 141.075 3.2788 120.75 2.65688 97.2251C2.30792 84.025 3.83953 70.7751 4.84585 56.7466Z" fill="#816BB7"/>
<path d="M195.131 355.282C190.633 350.337 187.653 345.617 187.89 339.076C187.993 336.215 185.525 333.059 183.729 330.366C175.514 318.047 167.062 305.886 158.836 293.573C156.652 290.303 154.826 286.766 153.105 283.221C151.878 280.694 152.729 278.737 156.365 277.81C172.213 284.829 185.887 295.183 203.598 299.175C203.84 304.727 206.514 307.244 209.82 309.83C216.375 314.96 222.775 321.642 223.343 329.559C224.101 340.125 228.128 344.892 238.189 345.438C224.857 351.875 211.001 356.122 195.131 355.282Z" fill="#787ABD"/>
<path d="M83.5257 3.84528C79.5314 5.07696 74.7924 5.99084 69.6156 6.98907C67.4107 9.95819 68.5837 12.6304 70.8282 15.5125C77.3092 23.8347 83.8622 32.1216 89.8949 40.7657C94.944 48.0004 99.3628 55.6808 103.943 63.2355C107.362 68.8762 110.164 75.0966 118.499 74.4711C119.474 74.398 120.568 75.9211 121.95 77.352C114.119 76.7853 105.944 75.5709 96.4231 73.5495C90.453 72.481 85.8126 72.3676 81.2094 71.8931C79.0243 71.6678 76.0214 71.4506 74.9116 70.0356C68.789 62.2286 62.5934 54.3829 57.4556 45.9233C50.5511 34.5547 44.2669 22.8743 33.7283 14.2466C32.3672 13.1324 31.7191 11.1472 30.5291 9.22308C32.8852 7.99756 34.5361 6.76697 36.3871 6.24176C43.6172 4.19025 50.9108 2.36182 58.1807 0.450439C66.3808 1.47614 74.5809 2.50177 83.5257 3.84528Z" fill="#6A8CC9"/>
<path d="M238.885 345.321C228.128 344.892 224.101 340.125 223.343 329.559C222.775 321.642 216.375 314.96 209.82 309.83C206.514 307.244 203.84 304.727 204.332 299.465C209.24 298.473 214.17 298.407 219.05 297.874C229.254 296.761 235.405 290.766 236.751 280.519C238.068 270.486 235.794 260.91 232.372 250.749C236.588 252.156 238.223 255.553 238.414 260.397C238.761 269.166 242.281 277.872 238.645 286.701C238.434 287.214 238.609 288.138 238.962 288.593C245.939 297.574 246.296 309.488 252.569 318.872C256.366 324.554 260.697 328.241 268.571 328.207C259.482 333.93 249.532 339.567 238.885 345.321Z" fill="#6A8CC9"/>
<path d="M57.3095 0.231717C50.9106 2.3619 43.6171 4.19033 36.3869 6.24185C34.5359 6.76706 32.8851 7.99765 30.5289 9.22317C31.7189 11.1472 32.367 13.1325 33.7281 14.2467C44.2668 22.8744 50.551 34.5548 57.4554 45.9234C62.5932 54.383 68.7888 62.2287 74.9114 70.0357C76.0212 71.4507 79.0242 71.6679 81.2093 71.8932C85.8124 72.3676 90.4529 72.481 95.6707 73.2963C89.0983 74.3772 81.8286 74.3375 74.805 75.6322C70.1794 76.485 65.9082 79.2597 60.8494 81.5415C49.5864 78.2359 44.7499 68.9362 39.523 60.1822C36.2862 54.7611 33.9769 48.7923 30.8527 43.2959C29.1009 40.214 26.9419 37.1071 24.2529 34.8685C19.0199 30.5118 16.717 25.7524 19.5685 19.1446C20.0766 17.9673 20.0217 16.547 20.1965 14.4151C25.7616 4.54159 34.8416 1.7236 44.5294 0.316983C48.4315 -0.249545 52.4648 0.0871857 57.3095 0.231717Z" fill="#6984C5"/>
<path d="M220.325 189.931C217.469 187.855 214.716 185.613 211.735 183.735C204.829 179.385 197.813 175.21 190.548 170.325C206.535 178.672 223.095 187.193 239.014 196.777C254.393 206.037 269.112 216.393 284.297 227.02C284.472 227.773 284.142 228.167 283.462 228.02C268.597 218.813 254.499 209.613 240.188 200.755C233.786 196.793 226.959 193.518 220.325 189.931Z" fill="#5B94C8"/>
<path d="M165.409 157.61C162.514 158.63 161.968 160.333 164.155 162.686C167.475 166.259 171.034 169.609 174.405 173.137C178.21 177.119 181.919 181.194 185.754 185.925C183.752 185.068 181.544 183.652 179.599 181.938C165.799 169.779 152.052 157.559 138.642 144.774C139.873 144.195 140.752 144.199 141.631 144.203C149.418 148.507 157.206 152.81 165.409 157.61Z" fill="#787ABD"/>
<path d="M394.892 235.574C395.636 227.486 397.176 219.045 398.265 210.547C399.699 199.363 396.968 188.826 392.56 177.826C406.135 195.778 404.42 215.307 394.892 235.574Z" fill="#6196CD"/>
<path d="M252.259 69.111C245.504 71.1956 241.065 65.3615 235.397 63.0595C225.609 59.0847 216.346 53.8094 206.905 48.9975C206.091 48.5822 205.588 47.555 204.759 46.1018C220.349 53.1087 236.12 60.8259 252.259 69.111Z" fill="#6196CD"/>
<path d="M194.399 104.756C196.304 104.316 198.971 103.71 200.844 104.663C212.371 110.525 223.725 116.728 235.104 122.876C235.592 123.14 235.77 123.976 236.206 125.232C222.478 119.049 208.637 112.179 194.399 104.756Z" fill="#6196CD"/>
<path d="M204.35 44.9642C200.394 44.3701 195.868 43.6453 191.726 41.9709C181.416 37.8035 171.282 33.2037 160.777 28.126C174.969 33.1168 189.461 38.7591 204.35 44.9642Z" fill="#6196CD"/>
<path d="M272.004 147.163C272.658 146.525 273.854 146.063 274.563 146.463C285.003 152.354 295.806 157.763 303.733 167.982C293.308 161.71 282.814 154.725 272.004 147.163Z" fill="#6196CD"/>
<path d="M312.905 255.444C319.721 264.85 320.153 274.84 314.953 285.623C314.275 285.965 313.972 285.734 314.069 284.922C317.527 274.478 315.815 265.217 312.31 255.938C312.509 255.774 312.905 255.444 312.905 255.444Z" fill="#5B94C8"/>
<path d="M355.975 137.384C346.704 136.259 341.027 129.142 334.921 121.862C341.821 126.357 348.747 131.574 355.975 137.384Z" fill="#6196CD"/>
<path d="M276.494 82.9015C267.305 82.2353 259.934 76.8836 252.679 70.2375C260.362 73.8229 268.257 78.0776 276.494 82.9015Z" fill="#6196CD"/>
<path d="M237.607 126.882C246.939 127.601 254.674 132.72 261.757 139.965C253.911 136.27 245.973 131.859 237.607 126.882Z" fill="#6196CD"/>
<path d="M369.934 227.121C376.617 226.427 379.156 231.785 382.248 237.239C378.27 234.533 374.218 231.135 369.934 227.121Z" fill="#6196CD"/>
<path d="M302.898 99.0504C296.159 99.7151 291.757 94.8217 286.802 90.0051C291.96 92.3489 297.242 95.4035 302.898 99.0504Z" fill="#6196CD"/>
<path d="M368.601 148.858C361.997 149.437 359.408 144.155 356.351 138.675C360.307 141.405 364.329 144.827 368.601 148.858Z" fill="#6196CD"/>
<path d="M326.587 114.809C321.991 114.723 316.36 115.408 314.781 108.037C318.699 109.589 322.49 111.908 326.587 114.809Z" fill="#6196CD"/>
<path d="M284.639 227.576C287.986 229.629 291.167 231.879 294.455 234.913C294.562 235.698 294.174 236.118 293.525 235.993C289.964 233.3 287.053 230.733 284.142 228.167C284.142 228.167 284.472 227.773 284.639 227.576Z" fill="#5B94C8"/>
<path d="M289.299 314.679C288.591 314.43 288.521 313.938 288.965 312.409C292.352 309.482 295.225 307.593 298.243 305.872C298.387 306.04 298.687 306.366 298.687 306.366C295.77 309.056 292.854 311.746 289.299 314.679Z" fill="#5B94C8"/>
<path d="M193.803 195.12C196.448 197.214 199.303 199.934 202.204 203.339C199.504 201.264 196.758 198.505 193.803 195.12Z" fill="#787ABD"/>
<path d="M286.535 88.8433C282.215 90.7502 279.142 88.7034 276.791 84.0627C279.831 84.9791 283.019 86.6242 286.535 88.8433Z" fill="#6196CD"/>
<path d="M336.064 194.936C340.483 193.936 342.758 196.69 344.227 201.303C341.622 199.852 338.956 197.697 336.064 194.936Z" fill="#6196CD"/>
<path d="M383.525 238.853C386.316 237.599 389.503 236.87 393.49 236.052C392.143 241.073 388.354 241.203 383.525 238.853Z" fill="#6196CD"/>
<path d="M262.047 141.133C266.013 140.01 269.261 141.705 271.739 145.964C268.683 145.026 265.536 143.361 262.047 141.133Z" fill="#6196CD"/>
<path d="M310.723 292.387C309.06 294.82 307.397 297.254 305.019 299.836C304.305 299.984 304.01 299.74 304.165 299.115C306.231 296.252 308.142 294.014 310.223 291.927C310.392 292.078 310.723 292.387 310.723 292.387Z" fill="#5B94C8"/>
<path d="M129.012 80.0222C132.834 76.2683 136.075 79.9241 139.875 82.3842C136.628 82.1728 133.158 81.2701 129.012 80.0222Z" fill="#6A8CC9"/>
<path d="M141.207 143.768C140.752 144.199 139.873 144.195 138.333 144.172C136.173 143.247 134.675 142.34 133.177 141.433C133.401 141.035 133.625 140.638 133.848 140.24C136.16 141.271 138.472 142.302 141.207 143.768Z" fill="#7C7C7C"/>
<path d="M180.305 163.824C177.484 163.261 174.331 162.214 170.77 160.679C173.565 161.24 176.769 162.291 180.305 163.824Z" fill="#5B94C8"/>
<path d="M334.708 120.632C330.794 122.447 328.759 119.773 326.831 115.999C329.289 116.871 331.85 118.466 334.708 120.632Z" fill="#6196CD"/>
<path d="M321.889 183.21C325.144 181.728 327.224 183.196 328.202 187.306C326.226 186.609 324.191 185.191 321.889 183.21Z" fill="#6196CD"/>
<path d="M387.892 169.382C386.186 168.308 384.356 166.623 382.573 164.243C384.336 165.289 386.051 167.03 387.892 169.382Z" fill="#6196CD"/>
<path d="M308.798 249.485C310.075 251.064 311.353 252.643 312.767 254.833C312.905 255.444 312.509 255.774 311.788 255.594C310.073 253.65 309.08 251.887 308.266 249.966C308.446 249.808 308.798 249.485 308.798 249.485Z" fill="#5B94C8"/>
<path d="M270.896 327.816C271.821 326.584 273.363 325.276 275.608 323.968C274.711 325.225 273.112 326.482 270.896 327.816Z" fill="#6A8CC9"/>
<path d="M314.426 286.083C313.658 288.057 312.74 289.913 311.272 292.078C310.723 292.387 310.392 292.078 310.355 291.32C311.536 288.953 312.754 287.343 313.972 285.734C313.972 285.734 314.275 285.965 314.426 286.083Z" fill="#5B94C8"/>
<path d="M314.641 106.758C312.938 106.435 310.948 105.54 308.878 103.915C310.65 104.185 312.502 105.185 314.641 106.758Z" fill="#6196CD"/>
<path d="M314.053 176.924C315.247 177.12 316.675 177.871 318.194 179.295C316.952 179.139 315.619 178.309 314.053 176.924Z" fill="#6196CD"/>
<path d="M186.32 167.24C185.244 167.212 183.905 166.7 182.319 165.671C183.4 165.688 184.728 166.222 186.32 167.24Z" fill="#5B94C8"/>
<path d="M308.686 102.76C307.476 102.682 305.997 102.075 304.389 100.799C305.646 100.83 307.031 101.53 308.686 102.76Z" fill="#6196CD"/>
<path d="M306.077 170.894C307.255 171.069 308.677 171.786 310.213 173.161C308.992 173.025 307.657 172.23 306.077 170.894Z" fill="#6196CD"/>
<path d="M391.979 175.376C390.89 174.799 389.711 173.593 388.577 171.67C389.711 172.217 390.8 173.482 391.979 175.376Z" fill="#6196CD"/>
<path d="M328.477 188.545C329.352 188.491 330.47 188.981 331.693 190.111C330.772 190.197 329.746 189.643 328.477 188.545Z" fill="#6196CD"/>
<path d="M229.891 244.767C230.584 245.194 231.339 246.297 232.059 248.126C231.334 247.716 230.644 246.58 229.891 244.767Z" fill="#6A8CC9"/>
<path d="M318.542 180.509C319.396 180.473 320.499 180.971 321.703 182.105C320.8 182.175 319.795 181.609 318.542 180.509Z" fill="#6196CD"/>
<path d="M346.551 204.484C347.419 204.469 348.504 205 349.642 206.172C348.72 206.219 347.744 205.624 346.551 204.484Z" fill="#6196CD"/>
<path d="M301.141 241.128C301.812 241.291 302.345 241.655 302.706 242.904C302.671 243.586 302.208 244.051 301.797 243.802C300.872 243.144 300.483 242.64 300.449 241.813C300.68 241.585 301.141 241.128 301.141 241.128Z" fill="#5B94C8"/>
<path d="M302.903 243.355C303.8 243.3 304.332 243.669 304.7 244.909C304.671 245.587 304.215 246.044 303.802 245.798C302.871 245.149 302.477 244.649 302.208 244.051C302.208 244.051 302.671 243.586 302.903 243.355Z" fill="#5B94C8"/>
<path d="M382.592 163.176C382.115 163.326 381.495 162.932 380.763 161.976C381.251 161.819 381.85 162.225 382.592 163.176Z" fill="#6196CD"/>
<path d="M281.343 320.578C281.206 320.19 281.491 319.701 282.028 319.499C282.282 319.784 281.764 320.478 281.343 320.578Z" fill="#6A8CC9"/>
<path d="M304.9 245.36C305.799 245.342 306.299 245.757 306.591 247.04C306.552 247.704 306.181 248.076 305.777 247.817C304.866 247.146 304.48 246.641 304.215 246.044C304.215 246.044 304.671 245.587 304.9 245.36Z" fill="#5B94C8"/>
<path d="M306.735 247.516C307.442 247.728 307.966 248.127 308.643 249.006C308.798 249.486 308.445 249.808 307.883 249.69C306.833 249.155 306.453 248.656 306.181 248.076C306.181 248.076 306.552 247.704 306.735 247.516Z" fill="#5B94C8"/>
<path d="M380.704 161.063C380.209 161.238 379.564 160.871 378.817 159.93C379.329 159.744 379.941 160.133 380.704 161.063Z" fill="#6196CD"/>
<path d="M276.834 323.886C276.748 323.455 277.196 322.935 278.154 322.285C278.232 322.702 277.799 323.25 276.834 323.886Z" fill="#6A8CC9"/>
<path d="M378.749 158.997C378.25 159.187 377.593 158.841 376.833 157.917C377.35 157.713 377.97 158.086 378.749 158.997Z" fill="#6196CD"/>
<path d="M376.771 156.981C376.266 157.163 375.61 156.808 374.882 155.867C375.413 155.668 376.017 156.057 376.771 156.981Z" fill="#6196CD"/>
<path d="M374.818 154.903C374.309 155.107 373.637 154.78 372.885 153.864C373.421 153.64 374.038 154.007 374.818 154.903Z" fill="#6196CD"/>
<path d="M372.809 152.906C372.304 153.113 371.63 152.79 370.864 151.88C371.394 151.654 372.017 152.015 372.809 152.906Z" fill="#6196CD"/>
<path d="M304.448 300.112C304.272 300.816 303.952 301.394 303.019 302.022C302.406 302.071 302.119 301.781 302.372 301.387C303.018 300.499 303.48 300.082 304.01 299.74C304.01 299.74 304.305 299.984 304.448 300.112Z" fill="#5B94C8"/>
<path d="M302.55 302.216C302.341 302.911 301.988 303.462 301.02 304.042C300.406 304.071 300.119 303.781 300.382 303.382C301.054 302.481 301.545 302.081 302.119 301.781C302.119 301.781 302.406 302.071 302.55 302.216Z" fill="#5B94C8"/>
<path d="M300.549 304.216C300.337 304.911 299.982 305.461 299.157 306.189C298.687 306.366 298.387 306.04 298.519 305.492C299.065 304.462 299.554 304.073 300.119 303.781C300.119 303.781 300.406 304.071 300.549 304.216Z" fill="#5B94C8"/>
<path d="M370.773 150.935C370.278 151.152 369.603 150.836 368.797 149.946C369.309 149.715 369.951 150.059 370.773 150.935Z" fill="#6196CD"/>
<path d="M279.026 322.239C278.916 321.75 279.362 321.161 280.384 320.519C280.501 321.023 280.042 321.582 279.026 322.239Z" fill="#6A8CC9"/>
<path d="M353.807 210.974C354.313 210.773 354.983 211.108 355.749 212.031C355.221 212.248 354.596 211.879 353.807 210.974Z" fill="#6196CD"/>
<path d="M311.451 174.844C311.928 174.606 312.727 174.929 313.797 175.861C313.302 176.115 312.538 175.76 311.451 174.844Z" fill="#6196CD"/>
<path d="M185.837 186.969C186.325 186.779 186.984 187.109 187.736 188.017C187.223 188.225 186.616 187.857 185.837 186.969Z" fill="#787ABD"/>
<path d="M187.844 188.965C188.329 188.774 188.987 189.103 189.742 190.005C189.232 190.214 188.625 189.849 187.844 188.965Z" fill="#787ABD"/>
<path d="M189.856 190.953C190.339 190.767 190.992 191.1 191.742 192.004C191.236 192.208 190.631 191.84 189.856 190.953Z" fill="#787ABD"/>
<path d="M331.775 191.062C332.275 190.833 332.962 191.131 333.77 192.012C333.249 192.26 332.606 191.925 331.775 191.062Z" fill="#6196CD"/>
<path d="M191.842 192.953C192.332 192.78 192.98 193.126 193.697 194.053C193.177 194.247 192.589 193.86 191.842 192.953Z" fill="#787ABD"/>
<path d="M333.882 192.927C334.36 192.711 335.031 193.024 335.866 193.894C335.377 194.12 334.726 193.787 333.882 192.927Z" fill="#6196CD"/>
<path d="M204.223 206.591C204.648 206.469 205.218 206.865 205.939 207.775C205.516 207.896 204.942 207.502 204.223 206.591Z" fill="#787ABD"/>
<path d="M349.734 207.144C350.236 206.905 350.932 207.18 351.733 208.048C351.201 208.313 350.564 207.986 349.734 207.144Z" fill="#6196CD"/>
<path d="M303.828 169.021C304.312 168.778 304.997 169.063 305.854 169.905C305.361 170.159 304.695 169.854 303.828 169.021Z" fill="#6196CD"/>
<path d="M206.111 208.704C206.565 208.603 207.164 209.051 207.877 210.064C207.413 210.171 206.834 209.712 206.111 208.704Z" fill="#787ABD"/>
<path d="M351.802 208.98C352.308 208.779 352.979 209.113 353.746 210.035C353.216 210.254 352.591 209.885 351.802 208.98Z" fill="#6196CD"/>
<path d="M299.081 239.197C299.759 239.336 300.304 239.684 300.929 240.684C301.141 241.129 300.68 241.586 300.035 241.568C298.873 241.147 298.48 240.646 298.428 239.835C298.646 239.622 299.081 239.197 299.081 239.197Z" fill="#5B94C8"/>
<path d="M355.812 212.968C356.317 212.766 356.987 213.102 357.757 214.023C357.23 214.24 356.604 213.872 355.812 212.968Z" fill="#6196CD"/>
<path d="M357.823 214.956C358.325 214.756 358.993 215.093 359.765 216.013C359.243 216.228 358.615 215.861 357.823 214.956Z" fill="#6196CD"/>
<path d="M359.833 216.944C360.334 216.747 360.999 217.088 361.768 218.01C361.247 218.221 360.622 217.851 359.833 216.944Z" fill="#6196CD"/>
<path d="M361.832 218.941C362.334 218.748 362.996 219.092 363.755 220.02C363.231 220.228 362.611 219.853 361.832 218.941Z" fill="#6196CD"/>
<path d="M176.274 219.965C176.94 220.08 177.498 220.412 178.102 221.455C178.296 221.916 178.308 221.862 178.308 221.862C177.661 221.561 177.015 221.261 176.377 220.41C176.385 219.861 176.315 219.935 176.274 219.965Z" fill="#787ABD"/>
<path d="M363.822 220.962C364.326 220.762 364.992 221.099 365.757 222.018C365.232 222.233 364.608 221.866 363.822 220.962Z" fill="#6196CD"/>
<path d="M178.273 221.924C178.25 221.933 178.534 221.869 178.421 221.866C178.308 221.862 178.296 221.916 178.273 221.924Z" fill="#787ABD"/>
<path d="M365.827 222.957C366.33 222.758 366.996 223.094 367.764 224.013C367.24 224.228 366.615 223.861 365.827 222.957Z" fill="#6196CD"/>
<path d="M367.835 224.95C368.338 224.749 369.005 225.086 369.779 226.005C369.257 226.22 368.628 225.855 367.835 224.95Z" fill="#6196CD"/>
<path d="M189.246 169.014C188.782 169.307 187.954 169.045 186.768 168.223C187.234 167.929 188.058 168.194 189.246 169.014Z" fill="#5B94C8"/>
<path d="M294.758 235.49C295.646 235.415 296.191 235.771 296.585 237.012C296.58 237.674 296.191 238.069 295.785 237.822C294.872 237.176 294.471 236.691 294.174 236.118C294.174 236.118 294.562 235.698 294.758 235.49Z" fill="#5B94C8"/>
<path d="M296.772 237.475C297.528 237.614 298.09 237.953 298.866 238.745C299.081 239.197 298.645 239.622 298.016 239.589C296.871 239.154 296.473 238.659 296.191 238.069C296.191 238.069 296.58 237.674 296.772 237.475Z" fill="#5B94C8"/>
<path d="M295.785 237.822C296.473 238.659 296.872 239.154 297.799 239.802C298.48 240.646 298.874 241.146 299.804 241.795C300.483 242.641 300.872 243.145 301.796 243.802C302.477 244.649 302.871 245.149 303.802 245.798C304.48 246.641 304.866 247.146 305.777 247.817C306.454 248.656 306.833 249.155 307.704 249.848C309.08 251.887 310.073 253.651 311.589 255.758C315.816 265.217 317.527 274.478 314.069 284.922C312.754 287.343 311.536 288.953 310.186 291.169C308.142 294.014 306.231 296.252 304.165 299.115C303.48 300.082 303.018 300.499 302.372 301.387C301.545 302.081 301.054 302.481 300.382 303.382C299.555 304.074 299.065 304.462 298.375 305.325C295.226 307.593 292.353 309.482 288.895 311.667C285.038 309.419 280.64 307.525 278.72 304.2C274.285 296.522 271.122 288.117 267.3 280.075C265.764 276.846 263.985 273.712 262.078 270.684C259.432 266.483 255.264 262.779 254.022 258.239C249.719 242.511 236.823 232.702 228.703 219.656C223.295 210.969 219.42 202.112 220.315 190.802C226.959 193.518 233.787 196.793 240.188 200.755C254.499 209.613 268.597 218.813 283.462 228.02C287.053 230.734 289.964 233.301 293.525 235.993C294.471 236.691 294.872 237.176 295.785 237.822Z" fill="#54A5D7"/>
</svg>
